<?xml version="1.0" standalone="no"?><svg xmlns="http://www.w3.org/2000/svg" viewBox="0 0 1440 320"><path fill="#ffffff" fill-opacity="1" d="M0,160L34.3,176C68.6,192,137,224,206,234.7C274.3,245,343,235,411,218.7C480,203,549,181,617,154.7C685.7,128,754,96,823,96C891.4,96,960,128,1029,122.7C1097.1,117,1166,75,1234,64C1302.9,53,1371,75,1406,85.3L1440,96L1440,320L1405.7,320C1371.4,320,1303,320,1234,320C1165.7,320,1097,320,1029,320C960,320,891,320,823,320C754.3,320,686,320,617,320C548.6,320,480,320,411,320C342.9,320,274,320,206,320C137.1,320,69,320,34,320L0,320Z"></path></svg>